<svg xmlns="http://www.w3.org/2000/svg" viewBox="0 0 175.7 26.27"><defs><style>.cls-1{fill:#f8971d;}.cls-2{fill:#1a4699;}</style></defs><title>Asset 8shop zone</title><g id="Layer_2" data-name="Layer 2"><g id="Layer_1-2" data-name="Layer 1"><path class="cls-1" d="M28.15,0A13.14,13.14,0,1,0,41.28,13.13,13.13,13.13,0,0,0,28.15,0Zm0,23a9.91,9.91,0,1,1,9.91-9.91A9.9,9.9,0,0,1,28.15,23Z"/><path class="cls-1" d="M35.8,14.49A7.73,7.73,0,1,1,28.19,5.4h0a1.6,1.6,0,0,1,1.55,1.35,7.74,7.74,0,0,0,5,5.92A1.63,1.63,0,0,1,35.8,14.49Z"/><path class="cls-2" d="M15,1.21a.49.49,0,0,1,.33.13.52.52,0,0,1,.13.35V6.47a.49.49,0,0,1-.13.33A.43.43,0,0,1,15,7H6.74v3.4h7.13a.45.45,0,0,1,.33.14.46.46,0,0,1,.13.32v4.8a.44.44,0,0,1-.46.46H6.74v8.66a.45.45,0,0,1-.14.35.48.48,0,0,1-.34.13H.48a.48.48,0,0,1-.35-.13A.48.48,0,0,1,0,24.73v-23a.48.48,0,0,1,.13-.35.52.52,0,0,1,.35-.13Z"/><path class="cls-2" d="M59,16.91l4.63,3.67a.42.42,0,0,1,.17.31.41.41,0,0,1-.09.34,12.76,12.76,0,0,1-4.34,3.43A12.63,12.63,0,0,1,49,24.92a12.22,12.22,0,0,1-6.7-6.67,12.33,12.33,0,0,1,0-9.73,12.66,12.66,0,0,1,2.68-4,12.72,12.72,0,0,1,4-2.67,12.55,12.55,0,0,1,10.37.25,12.57,12.57,0,0,1,4.32,3.41.52.52,0,0,1,.1.36.46.46,0,0,1-.17.31L59,9.83a.51.51,0,0,1-.33.11.45.45,0,0,1-.3-.16,6.9,6.9,0,0,0-2-1.54,5.39,5.39,0,0,0-2.44-.6,5.74,5.74,0,0,0-5.76,5.74,5.74,5.74,0,0,0,5.76,5.74,5.43,5.43,0,0,0,2.45-.6,6.6,6.6,0,0,0,2-1.56.41.41,0,0,1,.3-.16A.42.42,0,0,1,59,16.91Z"/><path class="cls-2" d="M84.82,1.21a.48.48,0,0,1,.32.13.44.44,0,0,1,.13.33V16.09A11.89,11.89,0,0,1,85,18.84a9.56,9.56,0,0,1-1.08,2.64A8.76,8.76,0,0,1,82,23.76a8.64,8.64,0,0,1-3,1.56,14.44,14.44,0,0,1-8.17,0,8.68,8.68,0,0,1-3-1.56,8.84,8.84,0,0,1-1.94-2.28,9.56,9.56,0,0,1-1.08-2.64,12.46,12.46,0,0,1-.31-2.75V1.67a.49.49,0,0,1,.13-.33A.49.49,0,0,1,65,1.21h5.81a.51.51,0,0,1,.33.13.43.43,0,0,1,.15.33V16.21a5.34,5.34,0,0,0,.18,1.41A4.06,4.06,0,0,0,72,18.87a2.74,2.74,0,0,0,1.16.95,4.43,4.43,0,0,0,3.45,0,2.57,2.57,0,0,0,1.14-.95,4.33,4.33,0,0,0,.59-1.25,5,5,0,0,0,.19-1.41V1.67a.49.49,0,0,1,.13-.33A.49.49,0,0,1,79,1.21Z"/><path class="cls-2" d="M100.78,2l-.46,4.68a.49.49,0,0,1-.19.32.41.41,0,0,1-.36.09,21.62,21.62,0,0,0-4.39-.56A3.74,3.74,0,0,0,94,6.77a1.84,1.84,0,0,0-.84.58,3.21,3.21,0,0,0-.35.63,1.49,1.49,0,0,0-.09.48,1.84,1.84,0,0,0,.09.53,3.8,3.8,0,0,0,.39.72,2.86,2.86,0,0,0,1,.84,6,6,0,0,0,1.67.65,7.75,7.75,0,0,1,2.15.88,9.16,9.16,0,0,1,1.93,1.58A7,7,0,0,1,101.3,16a8.23,8.23,0,0,1,.53,3,6.21,6.21,0,0,1-2.16,5.2c-1.44,1.12-3.77,1.69-7,1.69a42.72,42.72,0,0,1-5.09-.29.46.46,0,0,1-.29-.17.52.52,0,0,1-.12-.33l.46-4.68a.44.44,0,0,1,.19-.34.46.46,0,0,1,.38-.07,22,22,0,0,0,4.23.53,3.85,3.85,0,0,0,1.43-.21,1.65,1.65,0,0,0,.82-.58,2.78,2.78,0,0,0,.34-.62,1.6,1.6,0,0,0,.09-.49,1.78,1.78,0,0,0-.09-.53,4.13,4.13,0,0,0-.37-.72,2.91,2.91,0,0,0-1-.84A6.13,6.13,0,0,0,92,15.92,7.45,7.45,0,0,1,89.88,15,9.38,9.38,0,0,1,88,13.48a7.16,7.16,0,0,1-1.43-2.34,8.42,8.42,0,0,1-.54-3A5.91,5.91,0,0,1,88.43,3a11.2,11.2,0,0,1,6.7-1.77,52.2,52.2,0,0,1,5.24.31.51.51,0,0,1,.29.17A.52.52,0,0,1,100.78,2Z"/><path class="cls-2" d="M127.87,1.69a.48.48,0,0,1,.13-.35.49.49,0,0,1,.33-.13h5.8a.49.49,0,0,1,.33.13.48.48,0,0,1,.13.35v23a.48.48,0,0,1-.13.35.44.44,0,0,1-.33.13h-5.8a.44.44,0,0,1-.33-.13.48.48,0,0,1-.13-.35V16.07h-8.38v8.66a.45.45,0,0,1-.14.35.48.48,0,0,1-.34.13h-5.78a.45.45,0,0,1-.48-.48v-23a.48.48,0,0,1,.13-.35.52.52,0,0,1,.35-.13H119a.53.53,0,0,1,.34.13.45.45,0,0,1,.14.35v8.66h8.38Z"/><path class="cls-2" d="M155.61,1.21a.49.49,0,0,1,.33.13.44.44,0,0,1,.13.33V16.09a12.46,12.46,0,0,1-.31,2.75,9.56,9.56,0,0,1-1.08,2.64,8.76,8.76,0,0,1-1.92,2.28,8.64,8.64,0,0,1-3,1.56,14.44,14.44,0,0,1-8.17,0,8.28,8.28,0,0,1-4.91-3.84,9.56,9.56,0,0,1-1.08-2.64,11.89,11.89,0,0,1-.31-2.75V1.67a.44.44,0,0,1,.13-.33.49.49,0,0,1,.33-.13h5.8a.53.53,0,0,1,.34.13.42.42,0,0,1,.14.33V16.21a5.34,5.34,0,0,0,.18,1.41,4.09,4.09,0,0,0,.59,1.25,2.71,2.71,0,0,0,1.15.95,4.45,4.45,0,0,0,3.46,0,2.57,2.57,0,0,0,1.14-.95,4.61,4.61,0,0,0,.59-1.25,5,5,0,0,0,.19-1.41V1.67a.44.44,0,0,1,.13-.33.49.49,0,0,1,.33-.13Z"/><path class="cls-2" d="M173.73,12.13a2.06,2.06,0,0,0,.21.25,7.91,7.91,0,0,1,.48.71c.21.35.41.73.6,1.13a8.31,8.31,0,0,1,.48,1.5,8.64,8.64,0,0,1,.2,1.84,10.21,10.21,0,0,1-.51,3.33,6.55,6.55,0,0,1-1.4,2.41,6.12,6.12,0,0,1-2,1.42,5.81,5.81,0,0,1-2.39.49H157.27a.45.45,0,0,1-.48-.48v-23a.48.48,0,0,1,.13-.35.52.52,0,0,1,.35-.13h10.8a6.36,6.36,0,0,1,2.47.48,6.14,6.14,0,0,1,2,1.38A6.45,6.45,0,0,1,174,5.4a9.46,9.46,0,0,1,.51,3.2,9.57,9.57,0,0,1-.19,2,4.1,4.1,0,0,1-.39,1.2ZM163.53,7v3.08c0,.16.08.23.24.23h2.16a1.79,1.79,0,0,0,1.78-1.78,1.69,1.69,0,0,0-.53-1.25,1.75,1.75,0,0,0-1.25-.52h-2.16A.21.21,0,0,0,163.53,7ZM167,19.62a1.78,1.78,0,0,0,1.78-1.77,1.71,1.71,0,0,0-.52-1.25,1.66,1.66,0,0,0-1.26-.53h-3.24a.21.21,0,0,0-.24.24v3.07a.21.21,0,0,0,.24.24Z"/></g></g></svg>